<?xml version="1.0" standalone="no"?>
<!DOCTYPE svg PUBLIC "-//W3C//DTD SVG 20010904//EN"
 "http://www.w3.org/TR/2001/REC-SVG-20010904/DTD/svg10.dtd">
<svg version="1.0" xmlns="http://www.w3.org/2000/svg"
 width="960.000000pt" height="960.000000pt" viewBox="0 0 960.000000 960.000000"
 preserveAspectRatio="xMidYMid meet">
<metadata>
Created by potrace 1.11, written by Peter Selinger 2001-2013
</metadata>
<g transform="translate(0.000000,960.000000) scale(0.100000,-0.100000)"
fill="#000000" stroke="none">
<path d="M1829 9178 c-3 -26 2 -50 56 -278 25 -107 47 -204 49 -215 2 -11 11
-50 20 -86 8 -37 17 -78 20 -90 3 -13 8 -35 11 -49 9 -40 22 -119 29 -171 16
-115 20 -133 51 -234 15 -51 10 -65 -26 -65 -16 0 -29 2 -29 4 0 2 -11 48 -25
102 -14 55 -37 153 -50 219 -22 106 -90 366 -130 495 -7 25 -16 56 -18 70 -10
54 -39 206 -42 220 -2 8 -4 25 -4 38 -1 12 -8 25 -17 29 -27 10 -45 -20 -49
-88 -5 -86 -6 -596 0 -684 7 -117 65 -461 100 -595 25 -92 93 -259 121 -297
27 -36 30 -49 10 -56 -19 -8 -64 18 -97 56 -22 24 -139 245 -139 262 0 1 -7
20 -16 41 -14 34 -18 36 -28 22 -9 -13 -12 -72 -9 -225 5 -300 35 -436 114
-510 30 -27 260 -165 266 -159 1 1 3 52 4 114 2 105 4 113 25 127 36 23 54 19
55 -12 3 -101 13 -209 30 -312 6 -36 12 -79 14 -96 12 -89 20 -114 49 -160 18
-27 36 -63 41 -80 5 -16 9 -32 10 -35 6 -20 26 -122 31 -155 3 -22 7 -51 10
-65 5 -30 25 -166 29 -198 3 -29 2 -30 -118 -104 -54 -33 -96 -65 -94 -71 2
-7 65 -30 140 -52 l137 -39 0 -32 c0 -18 -4 -35 -8 -38 -5 -3 -7 -31 -5 -63 3
-42 11 -69 31 -98 37 -55 42 -69 48 -144 2 -36 9 -81 14 -99 9 -33 5 -62 -9
-62 -12 0 -140 -97 -196 -149 -57 -51 -70 -86 -41 -110 8 -7 17 -30 21 -52 5
-26 15 -45 31 -56 13 -8 24 -21 24 -28 0 -7 10 -24 21 -39 12 -15 23 -43 25
-62 2 -25 17 -52 48 -88 24 -29 55 -71 68 -95 13 -23 28 -50 33 -59 6 -9 39
-66 73 -127 35 -60 67 -117 72 -125 72 -117 89 -153 95 -196 3 -27 8 -62 11
-79 2 -16 6 -43 8 -60 6 -38 53 -232 60 -243 3 -4 7 -28 10 -53 3 -24 12 -82
20 -129 14 -82 20 -118 32 -197 3 -21 9 -63 14 -93 12 -68 19 -111 25 -152 3
-18 9 -53 14 -78 5 -25 14 -72 20 -105 6 -33 18 -96 27 -140 9 -44 18 -91 20
-105 3 -14 13 -70 24 -125 10 -55 26 -138 34 -185 9 -47 19 -96 21 -110 12
-60 46 -245 60 -320 3 -19 10 -53 15 -75 5 -22 11 -56 15 -75 3 -19 8 -46 10
-60 12 -58 15 -77 20 -105 10 -59 46 -251 55 -295 6 -25 12 -58 14 -75 3 -16
14 -86 26 -155 12 -69 23 -138 26 -155 17 -107 27 -134 56 -146 16 -6 65 -12
110 -13 80 -1 82 0 88 24 7 27 29 29 64 4 26 -18 92 -18 144 0 l42 15 11 -37
c12 -41 42 -60 139 -88 30 -8 87 -27 125 -42 39 -14 77 -27 85 -28 49 -8 109
-17 135 -20 17 -2 41 -6 55 -9 14 -3 42 -8 64 -11 21 -3 48 -8 60 -10 134 -27
247 -37 431 -40 209 -3 211 -3 272 -32 44 -20 74 -28 105 -27 24 2 54 3 68 4
14 1 40 15 58 32 33 31 35 31 105 24 188 -17 285 -16 394 5 59 11 130 27 156
35 45 13 51 13 85 -5 20 -11 45 -20 56 -20 36 0 131 62 169 110 37 48 52 54
78 34 8 -6 29 -16 47 -22 18 -6 46 -20 61 -32 16 -11 33 -20 38 -20 4 0 50 13
101 30 l93 30 102 -36 c179 -63 164 -62 232 -20 60 36 136 49 150 26 14 -23
38 -6 95 67 33 43 64 83 70 90 5 7 22 34 37 60 14 26 32 53 38 58 18 16 34
102 40 220 3 61 8 117 10 125 2 8 6 38 10 65 7 60 16 134 21 157 1 9 6 38 10
65 9 61 12 81 18 101 3 9 7 35 11 57 12 85 58 224 125 375 123 280 161 350
267 495 99 136 178 246 291 409 38 55 62 100 62 117 0 24 -4 27 -61 38 -106
21 -339 107 -454 167 -111 58 -316 205 -388 279 -41 43 -103 128 -131 183 -20
38 -17 112 7 177 26 70 137 291 158 314 11 12 21 34 22 48 2 24 -7 32 -88 76
-49 27 -115 67 -145 90 -79 60 -107 83 -214 180 -87 80 -262 296 -346 429
-162 255 -196 303 -216 303 -13 0 -63 -40 -126 -100 -171 -162 -295 -242 -513
-330 -92 -38 -121 -35 -118 11 0 16 4 117 8 224 4 107 9 206 11 220 25 198 25
386 -1 689 -2 24 -18 107 -36 185 -31 138 -47 175 -101 229 -17 17 -18 17 -35
-2 -27 -32 -74 -161 -118 -326 -13 -49 -45 -169 -70 -265 -26 -96 -53 -185
-60 -196 -8 -12 -31 -32 -52 -45 -21 -13 -44 -29 -51 -35 -6 -7 -20 -15 -30
-18 -12 -4 -29 -38 -52 -106 -51 -151 -53 -152 -81 -34 -10 42 -25 82 -35 88
-22 17 -56 106 -40 106 6 0 25 -4 43 -9 25 -7 33 -6 38 6 5 14 8 13 28 -3 61
-54 58 -61 52 96 -6 137 -5 141 14 135 23 -7 29 1 37 51 6 38 59 189 74 209
23 31 53 150 58 227 l5 88 35 -35 c21 -20 39 -30 42 -24 4 5 -26 72 -65 149
-40 76 -75 145 -78 154 -10 25 9 19 46 -14 34 -30 35 -30 190 -36 125 -5 157
-3 164 8 9 16 74 44 120 53 22 4 39 17 53 41 12 18 47 49 78 69 56 34 58 37
86 120 16 47 35 90 42 96 12 10 19 40 29 116 2 18 9 41 14 52 13 23 15 231 3
231 -12 0 -73 -110 -79 -145 -3 -16 -15 -43 -25 -58 -11 -15 -24 -42 -29 -60
-12 -45 -94 -129 -159 -165 -68 -37 -142 -42 -200 -12 -22 11 -46 20 -54 20
-8 0 -35 24 -61 54 -31 37 -56 57 -78 61 -45 10 -124 65 -137 96 -9 20 -24 30
-58 40 -65 18 -173 68 -191 90 -13 14 -37 19 -118 23 -56 4 -115 9 -131 12
-17 3 -42 0 -58 -8 -34 -17 -32 -17 -109 6 -50 15 -82 17 -195 12 -74 -3 -152
-10 -173 -15 -36 -9 -42 -7 -100 37 -59 46 -156 170 -207 267 -48 92 -58 101
-81 76 -22 -23 -19 -206 4 -266 8 -22 23 -67 32 -100 9 -33 25 -77 35 -99 l19
-38 -24 -32 c-14 -18 -25 -38 -25 -44 0 -6 -36 -36 -80 -67 -55 -39 -94 -76
-125 -120 -40 -55 -67 -80 -85 -77 -3 0 -23 -21 -45 -48 -51 -61 -138 -113
-176 -105 -15 3 -34 14 -43 24 -23 25 -65 111 -72 145 -2 16 -11 38 -19 50 -8
11 -15 36 -15 56 0 41 -14 70 -22 48 -10 -26 -9 -210 2 -222 5 -7 13 -35 16
-62 3 -27 24 -86 47 -132 41 -83 41 -83 26 -125 -19 -51 -23 -113 -23 -322 0
-133 4 -172 21 -230 27 -92 80 -219 160 -383 40 -82 62 -139 58 -151 -6 -19
-64 -41 -109 -41 -31 0 -32 -5 -8 -45 25 -39 78 -91 125 -121 41 -27 47 -46
17 -67 -11 -7 -43 -45 -71 -83 -70 -93 -110 -134 -202 -207 -89 -70 -164 -117
-189 -117 -10 0 -27 -9 -38 -20 l-20 -20 36 -72 c20 -40 56 -91 81 -115 29
-29 41 -48 36 -56 -29 -48 -70 -97 -82 -97 -18 0 -262 183 -278 208 -12 21
-28 76 -38 130 -4 26 1 46 25 87 26 45 28 54 15 65 -11 9 -12 16 -2 30 9 15 8
29 -1 62 -7 24 -14 60 -16 81 -3 23 -13 44 -26 55 -20 16 -21 19 -6 31 11 9
16 30 16 61 0 46 -2 49 -55 90 -30 23 -55 45 -55 49 0 4 -9 50 -21 104 -15 72
-18 105 -11 131 21 74 3 163 -40 207 -19 19 -28 44 -20 55 4 5 43 33 87 62
110 72 128 88 128 118 0 32 -4 34 -44 39 -19 3 -45 7 -59 10 -14 2 -49 7 -79
10 -88 10 -90 12 -106 130 -22 157 -48 295 -65 340 -6 15 -7 39 -4 53 12 52
12 132 -1 174 -7 24 -15 61 -18 83 -14 109 -42 216 -77 297 -42 97 -43 92 24
118 22 8 27 5 46 -24 19 -31 37 -103 42 -168 2 -23 7 -28 28 -28 35 0 76 48
143 167 41 72 46 89 47 173 2 128 -23 259 -81 413 -37 98 -112 237 -128 237
-3 0 -6 -64 -6 -142 0 -79 -3 -156 -8 -173 -4 -16 -10 -46 -13 -65 -3 -19 -12
-47 -20 -62 -13 -26 -54 -61 -61 -54 -3 2 -6 98 -8 212 -3 205 -5 234 -26 344
-51 266 -208 679 -336 879 -43 67 -153 191 -170 191 -7 0 -14 -6 -14 -12z
m2023 -2861 c22 -33 27 -35 38 -22 18 21 27 19 28 -7 0 -13 7 -59 16 -103 39
-196 49 -227 97 -307 13 -21 20 -40 17 -43 -3 -3 -43 11 -90 31 -69 29 -87 41
-99 67 -18 39 -155 302 -216 415 -25 46 -43 86 -39 89 3 3 33 7 66 9 34 2 73
10 88 18 l27 14 21 -62 c11 -34 32 -79 46 -99z m348 -597 c8 -8 39 -36 68 -61
38 -34 52 -55 53 -75 3 -43 0 -56 -9 -50 -5 3 -25 6 -46 8 -20 1 -41 7 -46 13
-18 22 -87 191 -82 203 4 13 12 8 62 -38z m-229 -1160 c22 -16 26 -25 20 -42
-6 -16 1 -35 25 -75 18 -30 65 -136 104 -236 40 -100 76 -191 81 -202 4 -11
26 -64 48 -117 25 -61 61 -125 98 -174 58 -77 58 -78 62 -155 3 -82 19 -115
43 -91 7 7 18 12 25 12 27 0 12 -66 -36 -155 l-47 -90 -40 4 c-101 11 -94 15
-144 -84 -50 -101 -131 -191 -215 -239 -73 -42 -217 -136 -241 -158 -21 -19
-22 -20 -3 -68 l18 -48 -24 -35 c-13 -20 -33 -57 -45 -84 -11 -26 -28 -58 -36
-70 l-14 -23 -33 20 c-43 27 -63 25 -110 -7 l-39 -27 6 -56 c3 -30 12 -72 19
-93 19 -52 13 -109 -19 -187 -66 -159 -76 -260 -41 -415 8 -38 15 -122 16
-185 1 -63 7 -155 14 -205 15 -107 16 -157 2 -162 -6 -2 -11 5 -12 15 -2 22
-42 297 -49 332 -6 29 -34 196 -39 225 -1 11 -6 43 -10 70 -4 28 -9 59 -11 70
-2 10 -6 37 -9 60 -7 47 -32 189 -40 225 -3 14 -8 39 -10 55 -19 106 -40 218
-65 340 -16 77 -34 176 -40 220 -6 44 -13 91 -15 104 -5 26 -12 84 -20 146 -3
22 -9 58 -14 80 -43 189 -64 306 -77 420 -3 28 -10 68 -14 90 -5 22 -10 57
-10 78 l0 38 44 -31 c51 -35 73 -37 136 -13 96 37 128 59 179 123 29 36 65 79
81 97 108 118 175 230 235 393 28 76 45 104 110 175 20 22 48 58 62 80 27 43
53 75 61 75 2 0 17 -9 33 -20z"/>
</g>
</svg>
